<?xml version="1.0" encoding="UTF-8" standalone="no"?>
<!-- Created with Inkscape (http://www.inkscape.org/) -->

<svg
   xmlns:dc="http://purl.org/dc/elements/1.1/"
   xmlns:cc="http://creativecommons.org/ns#"
   xmlns:rdf="http://www.w3.org/1999/02/22-rdf-syntax-ns#"
   xmlns:svg="http://www.w3.org/2000/svg"
   xmlns="http://www.w3.org/2000/svg"
   xmlns:sodipodi="http://sodipodi.sourceforge.net/DTD/sodipodi-0.dtd"
   xmlns:inkscape="http://www.inkscape.org/namespaces/inkscape"
   id="svg7646"
   version="1.1"
   inkscape:version="0.91 r13725"
   width="2125"
   height="750"
   viewBox="0 0 2125 750"
   sodipodi:docname="only_staff.svg">
  <metadata
     id="metadata7652">
    <rdf:RDF>
      <cc:Work
         rdf:about="">
        <dc:format>image/svg+xml</dc:format>
        <dc:type
           rdf:resource="http://purl.org/dc/dcmitype/StillImage" />
        <dc:title></dc:title>
      </cc:Work>
    </rdf:RDF>
  </metadata>
  <defs
     id="defs7650" />
  <sodipodi:namedview
     pagecolor="#ffffff"
     bordercolor="#666666"
     borderopacity="1"
     objecttolerance="10"
     gridtolerance="10"
     guidetolerance="10"
     inkscape:pageopacity="0"
     inkscape:pageshadow="2"
     inkscape:window-width="1920"
     inkscape:window-height="1056"
     id="namedview7648"
     showgrid="false"
     inkscape:zoom="0.79329062"
     inkscape:cx="1746.0644"
     inkscape:cy="222.85079"
     inkscape:window-x="0"
     inkscape:window-y="24"
     inkscape:window-maximized="1"
     inkscape:current-layer="svg7646" />
  <path
     inkscape:connector-curvature="0"
     style="fill:none;fill-rule:evenodd;stroke:#000000;stroke-width:1.49816394;stroke-linecap:square;stroke-linejoin:miter;stroke-miterlimit:4;stroke-dasharray:none;stroke-opacity:1"
     d="m 1455.5816,344.49328 c 28.5936,0 28.5936,0 28.5936,0"
     id="path17931" />
  <path
     style="fill:none;fill-rule:evenodd;stroke:#000000;stroke-width:1.41624999;stroke-linecap:square;stroke-linejoin:miter;stroke-miterlimit:4;stroke-dasharray:none;stroke-opacity:1"
     d="m 7.2634715,627.47552 c 1191.4906285,0 1191.4906285,0 1191.4906285,0"
     id="path2218"
     inkscape:connector-curvature="0" />
  <path
     style="fill:none;fill-rule:evenodd;stroke:#000000;stroke-width:1.41519117;stroke-linecap:square;stroke-linejoin:miter;stroke-miterlimit:4;stroke-dasharray:none;stroke-opacity:1"
     d="m 9.0452144,596.03085 c 1189.7098856,0 1189.7098856,0 1189.7098856,0"
     id="path4162"
     inkscape:connector-curvature="0" />
  <path
     style="fill:none;fill-rule:evenodd;stroke:#000000;stroke-width:1.41598535;stroke-linecap:square;stroke-linejoin:miter;stroke-miterlimit:4;stroke-dasharray:none;stroke-opacity:1"
     d="m 7.7089072,580.30852 c 1191.0454928,0 1191.0454928,0 1191.0454928,0"
     id="path4164"
     inkscape:connector-curvature="0" />
  <path
     style="fill:none;fill-rule:evenodd;stroke:#000000;stroke-width:1.41677904;stroke-linecap:square;stroke-linejoin:miter;stroke-miterlimit:4;stroke-dasharray:none;stroke-opacity:1"
     d="m 6.3726,564.58618 c 1192.3811,0 1192.3811,0 1192.3811,0"
     id="path4166"
     inkscape:connector-curvature="0" />
  <path
     style="fill:none;fill-rule:evenodd;stroke:#000000;stroke-width:1.41598535;stroke-linecap:square;stroke-linejoin:miter;stroke-miterlimit:4;stroke-dasharray:none;stroke-opacity:1"
     d="m 7.7089072,611.75319 c 1191.0454928,0 1191.0454928,0 1191.0454928,0"
     id="path4168"
     inkscape:connector-curvature="0" />
  <g
     style="stroke-width:0.48448911;stroke-miterlimit:4;stroke-dasharray:none"
     transform="matrix(3.1014885,0,0,3.2451372,13.140987,563.82182)"
     id="g2233">
    <g
       id="g2883"
       style="fill:#000000;fill-opacity:1;stroke-width:0.48448911;stroke-miterlimit:4;stroke-dasharray:none"
       transform="translate(-231.08429,-534.22988)">
      <path
         inkscape:connector-curvature="0"
         id="path2885"
         style="fill:#000000;fill-opacity:1;stroke-width:0.48448911;stroke-miterlimit:4;stroke-dasharray:none"
         d="m 248.25999,536.802 c 0.008,0.36938 -0.14955,0.73865 -0.43121,0.97985 -0.36025,0.32891 -0.90945,0.39628 -1.3583,0.22886 -0.44485,-0.17177 -0.7737,-0.61188 -0.79903,-1.09011 -0.0338,-0.37371 0.0854,-0.76581 0.35602,-1.03193 0.2551,-0.27187 0.63497,-0.4047 1.004,-0.38222 0.37984,0.008 0.74658,0.19956 0.97342,0.50374 0.17473,0.22433 0.25749,0.50935 0.2551,0.79181 z" />
    </g>
    <g
       id="g2887"
       style="fill:#000000;fill-opacity:1;stroke-width:0.48448911;stroke-miterlimit:4;stroke-dasharray:none"
       transform="translate(-231.0842,-535.22899)">
      <path
         inkscape:connector-curvature="0"
         id="path2889"
         style="fill:#000000;fill-opacity:1;stroke-width:0.48448911;stroke-miterlimit:4;stroke-dasharray:none"
         d="m 248.25999,542.64502 c 0.008,0.36967 -0.14923,0.73944 -0.43121,0.98083 -0.36025,0.32891 -0.90945,0.39628 -1.3583,0.22887 -0.44511,-0.17184 -0.77393,-0.61235 -0.79903,-1.09083 -0.0349,-0.37399 0.0921,-0.76081 0.35555,-1.03089 0.24963,-0.27846 0.6336,-0.4051 1.00145,-0.3835 0.48385,0.0133 0.92314,0.34301 1.12317,0.77515 0.074,0.16275 0.10881,0.34192 0.10837,0.52037 z" />
    </g>
    <g
       id="g2891"
       style="fill:#000000;fill-opacity:1;stroke-width:0.48448911;stroke-miterlimit:4;stroke-dasharray:none"
       transform="translate(-230.9546,-533.6597)">
      <path
         inkscape:connector-curvature="0"
         id="path2893"
         style="fill:#000000;fill-opacity:1;stroke-width:0.48448911;stroke-miterlimit:4;stroke-dasharray:none"
         d="m 243.979,540.86798 c 0.045,2.8246 -1.2154,5.57017 -3.21431,7.53651 -2.48942,2.48828 -5.74678,4.07085 -9.06707,5.12812 -0.44172,0.23921 -1.10792,-0.0762 -0.41212,-0.40117 1.33796,-0.60855 2.72769,-1.13094 3.96014,-1.95064 2.72235,-1.6833 5.01959,-4.33406 5.57715,-7.56226 0.32492,-1.96502 0.23445,-4.01059 -0.25795,-5.94002 -0.36132,-1.41859 -1.34451,-2.88302 -2.90132,-3.09265 -1.41284,-0.21626 -2.91467,0.27318 -3.92295,1.29506 -0.26516,0.26874 -0.78141,1.0131 -0.69622,1.86654 0.60202,-0.47279 0.56093,-0.42015 1.05465,-0.6403 1.13673,-0.50686 2.64449,0.21388 2.928,1.46555 0.30209,1.15023 0.0685,2.61366 -1.06664,3.22688 -1.18524,0.64453 -2.93424,0.37778 -3.59586,-0.89094 -1.09534,-1.95448 -0.49303,-4.62673 1.27752,-5.98295 1.80312,-1.49647 4.43407,-1.55482 6.55761,-0.78709 2.18456,0.81249 3.48666,3.07621 3.69728,5.31832 0.0573,0.46798 0.0821,0.93974 0.0821,1.41104 z" />
    </g>
  </g>
  <path
     inkscape:connector-curvature="0"
     style="fill:#000000"
     d="m 149.26668,721.62244 c -3.47665,-1.11959 -6.21987,-4.16217 -6.21987,-6.89865 0,-7.74561 15.90031,-10.81067 22.46668,-4.33103 7.10087,7.00713 -4.48732,15.01672 -16.24681,11.22968 z m 10.60561,-1.9458 c 1.93435,-3.08912 0.0841,-9.20951 -3.26583,-10.8069 -4.92054,-2.34577 -7.93663,1.65179 -5.88718,7.80284 1.41744,4.25462 7.18456,6.14743 9.15301,3.00406 z"
     id="bcC1" />
  <path
     inkscape:connector-curvature="0"
     style="fill:none;fill-rule:evenodd;stroke:#000000;stroke-width:1.49816394;stroke-linecap:square;stroke-linejoin:miter;stroke-miterlimit:4;stroke-dasharray:none;stroke-opacity:1"
     d="m 140.77753,706.10701 c 28.59354,0 28.59354,0 28.59354,0"
     id="path3490" />
  <path
     inkscape:connector-curvature="0"
     style="fill:none;fill-rule:evenodd;stroke:#000000;stroke-width:1.49816394;stroke-linecap:square;stroke-linejoin:miter;stroke-miterlimit:4;stroke-dasharray:none;stroke-opacity:1"
     d="m 140.77753,690.38467 c 28.59354,0 28.59354,0 28.59354,0"
     id="path3492" />
  <path
     inkscape:connector-curvature="0"
     style="fill:none;fill-rule:evenodd;stroke:#000000;stroke-width:1.49816394;stroke-linecap:square;stroke-linejoin:miter;stroke-miterlimit:4;stroke-dasharray:none;stroke-opacity:1"
     d="m 140.77753,674.66234 c 28.59354,0 28.59354,0 28.59354,0"
     id="path3494" />
  <path
     inkscape:connector-curvature="0"
     style="fill:none;fill-rule:evenodd;stroke:#000000;stroke-width:1.49816394;stroke-linecap:square;stroke-linejoin:miter;stroke-miterlimit:4;stroke-dasharray:none;stroke-opacity:1"
     d="m 140.77753,658.94 c 28.59354,0 28.59354,0 28.59354,0"
     id="path3496" />
  <path
     inkscape:connector-curvature="0"
     style="fill:none;fill-rule:evenodd;stroke:#000000;stroke-width:1.49816394;stroke-linecap:square;stroke-linejoin:miter;stroke-miterlimit:4;stroke-dasharray:none;stroke-opacity:1"
     d="m 140.77753,643.21767 c 28.59354,0 28.59354,0 28.59354,0"
     id="path3498" />
  <path
     inkscape:connector-curvature="0"
     style="fill:#000000"
     d="m 186.83261,713.76127 c -3.47665,-1.11959 -6.21986,-4.16217 -6.21986,-6.89864 0,-7.74561 15.9003,-10.81068 22.46668,-4.33104 7.10086,7.00713 -4.48733,15.01672 -16.24682,11.22968 z m 10.60562,-1.94579 c 1.93434,-3.08913 0.0841,-9.20952 -3.26583,-10.80691 -4.92054,-2.34577 -7.93663,1.65179 -5.88719,7.80284 1.41744,4.25462 7.18456,6.14743 9.15302,3.00407 z"
     id="bcD1" />
  <path
     inkscape:connector-curvature="0"
     style="fill:none;fill-rule:evenodd;stroke:#000000;stroke-width:1.49816394;stroke-linecap:square;stroke-linejoin:miter;stroke-miterlimit:4;stroke-dasharray:none;stroke-opacity:1"
     d="m 178.33986,706.10701 c 28.59353,0 28.59353,0 28.59353,0"
     id="path3503" />
  <path
     inkscape:connector-curvature="0"
     style="fill:none;fill-rule:evenodd;stroke:#000000;stroke-width:1.49816394;stroke-linecap:square;stroke-linejoin:miter;stroke-miterlimit:4;stroke-dasharray:none;stroke-opacity:1"
     d="m 178.33986,690.38467 c 28.59353,0 28.59353,0 28.59353,0"
     id="path3505" />
  <path
     inkscape:connector-curvature="0"
     style="fill:none;fill-rule:evenodd;stroke:#000000;stroke-width:1.49816394;stroke-linecap:square;stroke-linejoin:miter;stroke-miterlimit:4;stroke-dasharray:none;stroke-opacity:1"
     d="m 178.33986,674.66234 c 28.59353,0 28.59353,0 28.59353,0"
     id="path3507" />
  <path
     inkscape:connector-curvature="0"
     style="fill:none;fill-rule:evenodd;stroke:#000000;stroke-width:1.49816394;stroke-linecap:square;stroke-linejoin:miter;stroke-miterlimit:4;stroke-dasharray:none;stroke-opacity:1"
     d="m 178.33986,658.94 c 28.59353,0 28.59353,0 28.59353,0"
     id="path3509" />
  <path
     inkscape:connector-curvature="0"
     style="fill:none;fill-rule:evenodd;stroke:#000000;stroke-width:1.49816394;stroke-linecap:square;stroke-linejoin:miter;stroke-miterlimit:4;stroke-dasharray:none;stroke-opacity:1"
     d="m 178.33986,643.21767 c 28.59353,0 28.59353,0 28.59353,0"
     id="path3511" />
  <path
     inkscape:connector-curvature="0"
     style="fill:#000000"
     d="m 224.39855,705.9001 c -3.47665,-1.11958 -6.21987,-4.16217 -6.21987,-6.89864 0,-7.74561 15.90031,-10.81068 22.46668,-4.33103 7.10087,7.00713 -4.48732,15.01671 -16.24681,11.22967 z m 10.60561,-1.94579 c 1.93435,-3.08913 0.0841,-9.20952 -3.26583,-10.80691 -4.92054,-2.34577 -7.93663,1.65179 -5.88718,7.80284 1.41744,4.25462 7.18456,6.14743 9.15301,3.00407 z"
     id="bcE1" />
  <path
     inkscape:connector-curvature="0"
     style="fill:none;fill-rule:evenodd;stroke:#000000;stroke-width:1.49816394;stroke-linecap:square;stroke-linejoin:miter;stroke-miterlimit:4;stroke-dasharray:none;stroke-opacity:1"
     d="m 215.90023,690.3449 c 28.59369,0 28.59369,0 28.59369,0"
     id="path3517" />
  <path
     inkscape:connector-curvature="0"
     style="fill:none;fill-rule:evenodd;stroke:#000000;stroke-width:1.49816394;stroke-linecap:square;stroke-linejoin:miter;stroke-miterlimit:4;stroke-dasharray:none;stroke-opacity:1"
     d="m 215.90023,674.62256 c 28.59369,0 28.59369,0 28.59369,0"
     id="path3519" />
  <path
     inkscape:connector-curvature="0"
     style="fill:none;fill-rule:evenodd;stroke:#000000;stroke-width:1.49816394;stroke-linecap:square;stroke-linejoin:miter;stroke-miterlimit:4;stroke-dasharray:none;stroke-opacity:1"
     d="m 215.90023,658.90022 c 28.59369,0 28.59369,0 28.59369,0"
     id="path3521" />
  <path
     inkscape:connector-curvature="0"
     style="fill:none;fill-rule:evenodd;stroke:#000000;stroke-width:1.49816394;stroke-linecap:square;stroke-linejoin:miter;stroke-miterlimit:4;stroke-dasharray:none;stroke-opacity:1"
     d="m 215.90023,643.17789 c 28.59369,0 28.59369,0 28.59369,0"
     id="path3523" />
  <path
     inkscape:connector-curvature="0"
     style="fill:#000000"
     d="m 261.96448,698.03894 c -3.47665,-1.11959 -6.21986,-4.16218 -6.21986,-6.89865 0,-7.74561 15.9003,-10.81068 22.46668,-4.33103 7.10086,7.00713 -4.48733,15.01672 -16.24682,11.22968 z m 10.60562,-1.9458 c 1.93434,-3.08912 0.0841,-9.20952 -3.26583,-10.8069 -4.92054,-2.34578 -7.93663,1.65178 -5.88719,7.80283 1.41744,4.25462 7.18456,6.14744 9.15302,3.00407 z"
     id="bcF1" />
  <path
     inkscape:connector-curvature="0"
     style="fill:none;fill-rule:evenodd;stroke:#000000;stroke-width:1.49816394;stroke-linecap:square;stroke-linejoin:miter;stroke-miterlimit:4;stroke-dasharray:none;stroke-opacity:1"
     d="m 253.46617,690.3449 c 28.59368,0 28.59368,0 28.59368,0"
     id="path3527" />
  <path
     inkscape:connector-curvature="0"
     style="fill:none;fill-rule:evenodd;stroke:#000000;stroke-width:1.49816394;stroke-linecap:square;stroke-linejoin:miter;stroke-miterlimit:4;stroke-dasharray:none;stroke-opacity:1"
     d="m 253.46617,674.62256 c 28.59368,0 28.59368,0 28.59368,0"
     id="path3529" />
  <path
     inkscape:connector-curvature="0"
     style="fill:none;fill-rule:evenodd;stroke:#000000;stroke-width:1.49816394;stroke-linecap:square;stroke-linejoin:miter;stroke-miterlimit:4;stroke-dasharray:none;stroke-opacity:1"
     d="m 253.46617,658.90022 c 28.59368,0 28.59368,0 28.59368,0"
     id="path3531" />
  <path
     inkscape:connector-curvature="0"
     style="fill:none;fill-rule:evenodd;stroke:#000000;stroke-width:1.49816394;stroke-linecap:square;stroke-linejoin:miter;stroke-miterlimit:4;stroke-dasharray:none;stroke-opacity:1"
     d="m 253.46617,643.17789 c 28.59368,0 28.59368,0 28.59368,0"
     id="path3533" />
  <path
     inkscape:connector-curvature="0"
     style="fill:none;fill-rule:evenodd;stroke:#000000;stroke-width:1.49816394;stroke-linecap:square;stroke-linejoin:miter;stroke-miterlimit:4;stroke-dasharray:none;stroke-opacity:1"
     d="m 291.03766,674.66234 c 28.59354,0 28.59354,0 28.59354,0"
     id="path3537" />
  <path
     inkscape:connector-curvature="0"
     style="fill:none;fill-rule:evenodd;stroke:#000000;stroke-width:1.49816394;stroke-linecap:square;stroke-linejoin:miter;stroke-miterlimit:4;stroke-dasharray:none;stroke-opacity:1"
     d="m 291.03766,658.94 c 28.59354,0 28.59354,0 28.59354,0"
     id="path3539" />
  <path
     inkscape:connector-curvature="0"
     style="fill:none;fill-rule:evenodd;stroke:#000000;stroke-width:1.49816394;stroke-linecap:square;stroke-linejoin:miter;stroke-miterlimit:4;stroke-dasharray:none;stroke-opacity:1"
     d="m 291.03766,643.21767 c 28.59354,0 28.59354,0 28.59354,0"
     id="path3541" />
  <path
     inkscape:connector-curvature="0"
     style="fill:#000000"
     d="m 299.53042,690.17777 c -3.47665,-1.11959 -6.21987,-4.16218 -6.21987,-6.89865 0,-7.74561 15.90031,-10.81068 22.46668,-4.33103 7.10087,7.00713 -4.48732,15.01672 -16.24681,11.22968 z m 10.60561,-1.9458 c 1.93435,-3.08912 0.0842,-9.20951 -3.26583,-10.8069 -4.92054,-2.34578 -7.93663,1.65179 -5.88718,7.80284 1.41744,4.25462 7.18456,6.14743 9.15301,3.00406 z"
     id="bcG1" />
  <path
     inkscape:connector-curvature="0"
     style="fill:none;fill-rule:evenodd;stroke:#000000;stroke-width:1.49816394;stroke-linecap:square;stroke-linejoin:miter;stroke-miterlimit:4;stroke-dasharray:none;stroke-opacity:1"
     d="m 328.6036,674.66234 c 28.59353,0 28.59353,0 28.59353,0"
     id="path13427" />
  <path
     inkscape:connector-curvature="0"
     style="fill:none;fill-rule:evenodd;stroke:#000000;stroke-width:1.49816394;stroke-linecap:square;stroke-linejoin:miter;stroke-miterlimit:4;stroke-dasharray:none;stroke-opacity:1"
     d="m 328.6036,658.94 c 28.59353,0 28.59353,0 28.59353,0"
     id="path13429" />
  <path
     inkscape:connector-curvature="0"
     style="fill:none;fill-rule:evenodd;stroke:#000000;stroke-width:1.49816394;stroke-linecap:square;stroke-linejoin:miter;stroke-miterlimit:4;stroke-dasharray:none;stroke-opacity:1"
     d="m 328.6036,643.21767 c 28.59353,0 28.59353,0 28.59353,0"
     id="path13431" />
  <path
     inkscape:connector-curvature="0"
     style="fill:#000000"
     d="m 337.09635,682.3166 c -3.47665,-1.11959 -6.21986,-4.16217 -6.21986,-6.89865 0,-7.74561 15.9003,-10.81067 22.46668,-4.33103 7.10086,7.00713 -4.48733,15.01672 -16.24682,11.22968 z m 10.60562,-1.9458 c 1.93434,-3.08912 0.0841,-9.20951 -3.26583,-10.8069 -4.92054,-2.34577 -7.93663,1.65179 -5.88719,7.80284 1.41744,4.25462 7.18456,6.14743 9.15302,3.00406 z"
     id="bcA1" />
  <path
     inkscape:connector-curvature="0"
     style="fill:none;fill-rule:evenodd;stroke:#000000;stroke-width:1.49816394;stroke-linecap:square;stroke-linejoin:miter;stroke-miterlimit:4;stroke-dasharray:none;stroke-opacity:1"
     d="m 366.16397,658.90022 c 28.59369,0 28.59369,0 28.59369,0"
     id="path13437" />
  <path
     inkscape:connector-curvature="0"
     style="fill:none;fill-rule:evenodd;stroke:#000000;stroke-width:1.49816394;stroke-linecap:square;stroke-linejoin:miter;stroke-miterlimit:4;stroke-dasharray:none;stroke-opacity:1"
     d="m 366.16397,643.17789 c 28.59369,0 28.59369,0 28.59369,0"
     id="path13439" />
  <path
     inkscape:connector-curvature="0"
     style="fill:#000000"
     d="m 374.66229,674.45543 c -3.47665,-1.11959 -6.21987,-4.16217 -6.21987,-6.89864 0,-7.74561 15.90031,-10.81068 22.46668,-4.33104 7.10087,7.00713 -4.48732,15.01672 -16.24681,11.22968 z m 10.60561,-1.94579 c 1.93435,-3.08913 0.0842,-9.20952 -3.26583,-10.80691 -4.92054,-2.34577 -7.93663,1.65179 -5.88718,7.80284 1.41744,4.25462 7.18456,6.14743 9.15301,3.00407 z"
     id="bcH1" />
  <path
     inkscape:connector-curvature="0"
     style="fill:none;fill-rule:evenodd;stroke:#000000;stroke-width:1.49816394;stroke-linecap:square;stroke-linejoin:miter;stroke-miterlimit:4;stroke-dasharray:none;stroke-opacity:1"
     d="m 403.72991,658.90022 c 28.59368,0 28.59368,0 28.59368,0"
     id="path16350" />
  <path
     inkscape:connector-curvature="0"
     style="fill:none;fill-rule:evenodd;stroke:#000000;stroke-width:1.49816394;stroke-linecap:square;stroke-linejoin:miter;stroke-miterlimit:4;stroke-dasharray:none;stroke-opacity:1"
     d="m 403.72991,643.17789 c 28.59368,0 28.59368,0 28.59368,0"
     id="path16352" />
  <path
     inkscape:connector-curvature="0"
     style="fill:#000000"
     d="m 412.22822,666.59426 c -3.47665,-1.11958 -6.21986,-4.16217 -6.21986,-6.89864 0,-7.74561 15.9003,-10.81068 22.46668,-4.33103 7.10086,7.00713 -4.48733,15.01671 -16.24682,11.22967 z m 10.60562,-1.94579 c 1.93434,-3.08913 0.0841,-9.20952 -3.26583,-10.80691 -4.92054,-2.34577 -7.93663,1.65179 -5.88719,7.80284 1.41744,4.25462 7.18456,6.14743 9.15302,3.00407 z"
     id="bcC2" />
  <path
     inkscape:connector-curvature="0"
     style="fill:none;fill-rule:evenodd;stroke:#000000;stroke-width:1.49816394;stroke-linecap:square;stroke-linejoin:miter;stroke-miterlimit:4;stroke-dasharray:none;stroke-opacity:1"
     d="m 441.29584,643.17789 c 28.59369,0 28.59369,0 28.59369,0"
     id="path16359" />
  <path
     inkscape:connector-curvature="0"
     style="fill:#000000"
     d="m 449.79416,658.7331 c -3.47665,-1.11959 -6.21987,-4.16218 -6.21987,-6.89865 0,-7.74561 15.90031,-10.81068 22.46668,-4.33103 7.10087,7.00713 -4.48732,15.01672 -16.24681,11.22968 z m 10.60561,-1.9458 c 1.93435,-3.08912 0.0842,-9.20952 -3.26583,-10.8069 -4.92054,-2.34578 -7.93663,1.65178 -5.88718,7.80283 1.41744,4.25462 7.18456,6.14744 9.15301,3.00407 z"
     id="bcD2" />
  <path
     inkscape:connector-curvature="0"
     style="fill:none;fill-rule:evenodd;stroke:#000000;stroke-width:1.49816394;stroke-linecap:square;stroke-linejoin:miter;stroke-miterlimit:4;stroke-dasharray:none;stroke-opacity:1"
     d="m 478.86178,643.17789 c 28.59368,0 28.59368,0 28.59368,0"
     id="path16363" />
  <path
     inkscape:connector-curvature="0"
     style="fill:#000000"
     d="m 487.36009,650.87193 c -3.47665,-1.11959 -6.21986,-4.16218 -6.21986,-6.89865 0,-7.74561 15.9003,-10.81068 22.46668,-4.33103 7.10086,7.00713 -4.48733,15.01672 -16.24682,11.22968 z m 10.60562,-1.9458 c 1.93434,-3.08912 0.0842,-9.20951 -3.26583,-10.8069 -4.92054,-2.34578 -7.93663,1.65179 -5.88719,7.80284 1.41744,4.25462 7.18456,6.14743 9.15302,3.00406 z"
     id="bcE2" />
  <path
     inkscape:connector-curvature="0"
     style="fill:#000000"
     d="m 524.92603,643.01076 c -3.47665,-1.11959 -6.21987,-4.16217 -6.21987,-6.89865 0,-7.74561 15.90031,-10.81067 22.46668,-4.33103 7.10087,7.00713 -4.48732,15.01672 -16.24681,11.22968 z m 10.60561,-1.9458 c 1.93435,-3.08912 0.0841,-9.20951 -3.26583,-10.8069 -4.92054,-2.34577 -7.93663,1.65179 -5.88718,7.80284 1.41744,4.25462 7.18456,6.14743 9.15301,3.00406 z"
     id="bcF2" />
  <path
     inkscape:connector-curvature="0"
     style="fill:#000000"
     d="m 562.49196,635.14959 c -3.47665,-1.11959 -6.21986,-4.16217 -6.21986,-6.89864 0,-7.74561 15.9003,-10.81068 22.46668,-4.33104 7.10086,7.00713 -4.48733,15.01672 -16.24682,11.22968 z m 10.60562,-1.94579 c 1.93434,-3.08913 0.0842,-9.20952 -3.26583,-10.80691 -4.92054,-2.34577 -7.93663,1.65179 -5.88719,7.80284 1.41744,4.25462 7.18456,6.14743 9.15302,3.00407 z"
     id="bcG2" />
  <path
     inkscape:connector-curvature="0"
     style="fill:#000000"
     d="m 600.0579,627.28842 c -3.47665,-1.11958 -6.21987,-4.16217 -6.21987,-6.89864 0,-7.74561 15.90031,-10.81068 22.46668,-4.33103 7.10087,7.00713 -4.48732,15.01671 -16.24681,11.22967 z m 10.60561,-1.94579 c 1.93435,-3.08913 0.0842,-9.20952 -3.26583,-10.80691 -4.92054,-2.34577 -7.93663,1.65179 -5.88718,7.80284 1.41744,4.25462 7.18456,6.14743 9.15301,3.00407 z"
     id="bcA2" />
  <path
     inkscape:connector-curvature="0"
     style="fill:#000000"
     d="m 637.62383,619.42726 c -3.47665,-1.11959 -6.21986,-4.16218 -6.21986,-6.89865 0,-7.74561 15.9003,-10.81068 22.46668,-4.33103 7.10086,7.00713 -4.48733,15.01672 -16.24682,11.22968 z m 10.60562,-1.9458 c 1.93434,-3.08912 0.0841,-9.20952 -3.26583,-10.8069 -4.92054,-2.34578 -7.93663,1.65178 -5.88719,7.80283 1.41744,4.25462 7.18456,6.14744 9.15302,3.00407 z"
     id="bcH2" />
  <path
     inkscape:connector-curvature="0"
     style="fill:#000000"
     d="m 675.18977,611.56609 c -3.47665,-1.11959 -6.21987,-4.16218 -6.21987,-6.89865 0,-7.74561 15.90031,-10.81068 22.46668,-4.33103 7.10087,7.00713 -4.48732,15.01672 -16.24681,11.22968 z m 10.60561,-1.9458 c 1.93435,-3.08912 0.0842,-9.20951 -3.26583,-10.8069 -4.92054,-2.34578 -7.93663,1.65179 -5.88718,7.80284 1.41744,4.25462 7.18456,6.14743 9.15301,3.00406 z"
     id="bcC3" />
  <path
     inkscape:connector-curvature="0"
     style="fill:#000000"
     d="m 712.7557,603.70492 c -3.47665,-1.11959 -6.21986,-4.16217 -6.21986,-6.89865 0,-7.74561 15.9003,-10.81067 22.46668,-4.33103 7.10086,7.00713 -4.48733,15.01672 -16.24682,11.22968 z m 10.60562,-1.9458 c 1.93434,-3.08912 0.0842,-9.20951 -3.26583,-10.8069 -4.92054,-2.34577 -7.93663,1.65179 -5.88719,7.80284 1.41744,4.25462 7.18456,6.14743 9.15302,3.00406 z"
     id="bcD3" />
  <path
     inkscape:connector-curvature="0"
     style="fill:#000000"
     d="m 750.32164,595.84375 c -3.47665,-1.11959 -6.21987,-4.16217 -6.21987,-6.89864 0,-7.74561 15.90031,-10.81068 22.46668,-4.33104 7.10087,7.00713 -4.48732,15.01672 -16.24681,11.22968 z m 10.60561,-1.94579 c 1.93435,-3.08913 0.0842,-9.20952 -3.26583,-10.80691 -4.92054,-2.34577 -7.93663,1.65179 -5.88718,7.80284 1.41744,4.25462 7.18456,6.14743 9.15301,3.00407 z"
     id="bcE3" />
  <path
     inkscape:connector-curvature="0"
     style="fill:#000000"
     d="m 787.88757,587.98258 c -3.47665,-1.11958 -6.21986,-4.16217 -6.21986,-6.89864 0,-7.74561 15.9003,-10.81068 22.46668,-4.33103 7.10086,7.00713 -4.48733,15.01671 -16.24682,11.22967 z m 10.60562,-1.94579 c 1.93434,-3.08913 0.0842,-9.20952 -3.26583,-10.80691 -4.92054,-2.34577 -7.93663,1.65179 -5.88719,7.80284 1.41744,4.25462 7.18456,6.14743 9.15302,3.00407 z"
     id="bcF3" />
  <path
     inkscape:connector-curvature="0"
     style="fill:#000000"
     d="m 825.45351,580.12142 c -3.47665,-1.11959 -6.21987,-4.16218 -6.21987,-6.89865 0,-7.74561 15.90031,-10.81068 22.46668,-4.33103 7.10087,7.00713 -4.48732,15.01672 -16.24681,11.22968 z m 10.60561,-1.9458 c 1.93435,-3.08912 0.0842,-9.20952 -3.26583,-10.8069 -4.92054,-2.34578 -7.93663,1.65178 -5.88718,7.80283 1.41744,4.25462 7.18456,6.14744 9.15301,3.00407 z"
     id="bcG3" />
  <path
     inkscape:connector-curvature="0"
     style="fill:#000000"
     d="m 863.01944,572.26025 c -3.47665,-1.11959 -6.21986,-4.16218 -6.21986,-6.89865 0,-7.74561 15.9003,-10.81068 22.46668,-4.33103 7.10086,7.00713 -4.48733,15.01672 -16.24682,11.22968 z m 10.60562,-1.9458 c 1.93434,-3.08912 0.0842,-9.20951 -3.26583,-10.8069 -4.92054,-2.34578 -7.93663,1.65179 -5.88719,7.80284 1.41744,4.25462 7.18456,6.14743 9.15302,3.00406 z"
     id="bcA3" />
  <path
     inkscape:connector-curvature="0"
     style="fill:#000000"
     d="m 900.58538,564.39908 c -3.47665,-1.11959 -6.21987,-4.16217 -6.21987,-6.89865 0,-7.74561 15.90031,-10.81067 22.46668,-4.33103 7.10087,7.00713 -4.48732,15.01672 -16.24681,11.22968 z m 10.60561,-1.9458 c 1.93435,-3.08912 0.0841,-9.20951 -3.26583,-10.8069 -4.92054,-2.34577 -7.93663,1.65179 -5.88718,7.80284 1.41744,4.25462 7.18456,6.14743 9.15301,3.00406 z"
     id="bcH3" />
  <path
     style="fill:none;fill-rule:evenodd;stroke:#000000;stroke-width:1.42648137;stroke-linecap:square;stroke-linejoin:miter;stroke-miterlimit:4;stroke-dasharray:none;stroke-opacity:1"
     d="m 599.24007,438.80741 c 1415.68193,0 1415.68193,0 1415.68193,0"
     id="path17819"
     inkscape:connector-curvature="0" />
  <path
     style="fill:none;fill-rule:evenodd;stroke:#000000;stroke-width:1.42457664;stroke-linecap:square;stroke-linejoin:miter;stroke-miterlimit:4;stroke-dasharray:none;stroke-opacity:1"
     d="m 599.2383,407.36274 c 1411.9038,0 1411.9038,0 1411.9038,0"
     id="path17821"
     inkscape:connector-curvature="0" />
  <path
     style="fill:none;fill-rule:evenodd;stroke:#000000;stroke-width:1.42584682;stroke-linecap:square;stroke-linejoin:miter;stroke-miterlimit:4;stroke-dasharray:none;stroke-opacity:1"
     d="m 599.23948,391.64041 c 1414.42262,0 1414.42262,0 1414.42262,0"
     id="path17823"
     inkscape:connector-curvature="0" />
  <path
     style="fill:none;fill-rule:evenodd;stroke:#000000;stroke-width:1.42457664;stroke-linecap:square;stroke-linejoin:miter;stroke-miterlimit:4;stroke-dasharray:none;stroke-opacity:1"
     d="m 599.2383,375.91807 c 1411.9038,0 1411.9038,0 1411.9038,0"
     id="path17825"
     inkscape:connector-curvature="0" />
  <path
     style="fill:none;fill-rule:evenodd;stroke:#000000;stroke-width:1.42648137;stroke-linecap:square;stroke-linejoin:miter;stroke-miterlimit:4;stroke-dasharray:none;stroke-opacity:1"
     d="m 599.24007,423.08508 c 1415.68193,0 1415.68193,0 1415.68193,0"
     id="path17827"
     inkscape:connector-curvature="0" />
  <path
     inkscape:connector-curvature="0"
     style="fill:#000000;fill-opacity:1;fill-rule:nonzero;stroke:#000000;stroke-width:0.16059729;stroke-linecap:butt;stroke-linejoin:miter;stroke-miterlimit:4;stroke-dasharray:none;stroke-opacity:1"
     d="m 895.59339,452.26372 c -0.6152,3.43656 2.8114,10.57331 9.70535,10.80646 8.33422,0.28185 13.65881,-6.38876 11.17819,-17.27527 l -12.44057,-60.07406 c -1.48093,-7.15128 -0.36936,-11.03007 0.4214,-13.34166 2.1097,-6.16718 7.38051,-8.71087 8.66371,-6.73645 0.73262,1.12725 2.50404,6.39815 -2.53851,15.83869 -3.93276,7.3628 -22.23045,17.0177 -23.57327,34.29586 -1.16248,15.02492 13.86959,26.12173 26.84362,21.75933 8.61382,-2.89632 13.05429,-16.57482 7.72263,-23.63045 -14.07029,-18.61987 -36.63554,9.87662 -14.77629,17.68332 -2.37696,-1.9567 -3.99716,-3.47184 -4.29883,-5.32376 -2.93712,-18.03039 22.97369,-13.27005 15.99227,3.83519 -2.87078,7.03373 -14.46646,8.39438 -21.0701,2.11928 -5.53185,-5.25664 -7.98653,-15.38298 -1.83056,-22.65268 8.33763,-9.84605 18.18162,-18.68494 20.79615,-32.16352 3.09177,-15.93886 -7.00269,-28.36499 -13.38453,-12.68674 -2.14141,5.26081 -2.9391,10.54187 -0.88866,20.66193 l 12.43074,61.35264 c 0.88995,4.39239 0.29417,10.43668 -3.62389,13.21465 -1.94085,1.3761 -8.80877,2.32316 -10.48903,-0.96163"
     id="path17831"
     sodipodi:nodetypes="cssssssssscsssssssssc" />
  <ellipse
     ry="6.2377014"
     rx="5.8610692"
     cy="-435.10883"
     cx="-909.33777"
     style="fill:#000000;fill-opacity:1;stroke:#000000;stroke-width:0.16059741;stroke-miterlimit:4;stroke-dasharray:none;stroke-opacity:1"
     id="path17833"
     transform="matrix(-0.99980719,-0.01963632,0.01793693,-0.99983912,0,0)" />
  <path
     inkscape:connector-curvature="0"
     style="fill:none;fill-rule:evenodd;stroke:#000000;stroke-width:1.49816394;stroke-linecap:square;stroke-linejoin:miter;stroke-miterlimit:4;stroke-dasharray:none;stroke-opacity:1"
     d="m 929.653,454.50986 c 28.59368,0 28.59368,0 28.59368,0"
     id="path17893" />
  <path
     inkscape:connector-curvature="0"
     style="fill:#000000"
     d="m 938.15131,462.2039 c -3.47665,-1.11959 -6.21986,-4.16218 -6.21986,-6.89865 0,-7.74561 15.9003,-10.81068 22.46668,-4.33103 7.10086,7.00713 -4.48733,15.01672 -16.24682,11.22968 z m 10.60562,-1.9458 c 1.93434,-3.08912 0.0842,-9.20952 -3.26583,-10.8069 -4.92054,-2.34578 -7.93663,1.65178 -5.88719,7.80283 1.41744,4.25462 7.18456,6.14744 9.15302,3.00407 z"
     id="tcC4" />
  <path
     inkscape:connector-curvature="0"
     style="fill:#000000"
     d="m 975.71725,454.34273 c -3.47665,-1.11959 -6.21987,-4.16218 -6.21987,-6.89865 0,-7.74561 15.90031,-10.81068 22.46668,-4.33103 7.10087,7.00713 -4.48732,15.01672 -16.24681,11.22968 z m 10.60561,-1.9458 c 1.93435,-3.08912 0.0842,-9.20951 -3.26583,-10.8069 -4.92054,-2.34578 -7.93663,1.65179 -5.88718,7.80284 1.41744,4.25462 7.18456,6.14743 9.15301,3.00406 z"
     id="tcD4" />
  <path
     inkscape:connector-curvature="0"
     style="fill:#000000"
     d="m 1013.2832,446.48156 c -3.4767,-1.11959 -6.2199,-4.16217 -6.2199,-6.89865 0,-7.74561 15.9003,-10.81074 22.4667,-4.33103 7.1009,7.00713 -4.4873,15.01672 -16.2468,11.22968 z m 10.6056,-1.9458 c 1.9343,-3.08912 0.084,-9.20951 -3.2658,-10.8069 -4.9206,-2.34584 -7.9367,1.65179 -5.8872,7.80284 1.4174,4.25462 7.1845,6.14743 9.153,3.00406 z"
     id="tcE4" />
  <path
     inkscape:connector-curvature="0"
     style="fill:#000000"
     d="m 1050.8491,438.62039 c -3.4766,-1.11959 -6.2198,-4.16217 -6.2198,-6.89871 0,-7.74561 15.9003,-10.81072 22.4666,-4.33103 7.1009,7.00719 -4.4873,15.01678 -16.2468,11.22974 z m 10.6056,-1.94579 c 1.9344,-3.08913 0.084,-9.20958 -3.2658,-10.80697 -4.9205,-2.34576 -7.9366,1.65179 -5.8872,7.8029 1.4175,4.25462 7.1846,6.14743 9.153,3.00407 z"
     id="tcF4" />
  <path
     inkscape:connector-curvature="0"
     style="fill:#000000"
     d="m 1088.4151,430.75916 c -3.4767,-1.11959 -6.2199,-4.16217 -6.2199,-6.89868 0,-7.74557 15.9003,-10.81069 22.4667,-4.33095 7.1008,7.00708 -4.4874,15.01673 -16.2468,11.22963 z m 10.6056,-1.94579 c 1.9343,-3.08913 0.084,-9.2095 -3.2659,-10.80686 -4.9205,-2.34581 -7.9366,1.65168 -5.8871,7.80279 1.4174,4.25462 7.1845,6.14749 9.153,3.00407 z"
     id="tcG4" />
  <path
     inkscape:connector-curvature="0"
     style="fill:#000000"
     d="m 1125.981,422.89806 c -3.4767,-1.11964 -6.2199,-4.16221 -6.2199,-6.89874 0,-7.74558 15.9003,-10.8107 22.4667,-4.33096 7.1009,7.00707 -4.4873,15.01667 -16.2468,11.2297 z m 10.6056,-1.94582 c 1.9343,-3.08912 0.084,-9.20954 -3.2658,-10.8069 -4.9206,-2.3458 -7.9367,1.65168 -5.8872,7.80285 1.4174,4.25462 7.1845,6.14737 9.153,3.00405 z"
     id="tcA4" />
  <path
     inkscape:connector-curvature="0"
     style="fill:#000000"
     d="m 1163.5469,415.03689 c -3.4766,-1.11964 -6.2198,-4.16221 -6.2198,-6.89874 0,-7.74558 15.9003,-10.8107 22.4666,-4.33096 7.1009,7.00707 -4.4873,15.01669 -16.2468,11.2297 z m 10.6056,-1.94581 c 1.9344,-3.08913 0.084,-9.20955 -3.2658,-10.80691 -4.9205,-2.3458 -7.9366,1.65168 -5.8872,7.80286 1.4175,4.25462 7.1846,6.14738 9.153,3.00405 z"
     id="tcH4" />
  <path
     inkscape:connector-curvature="0"
     style="fill:#000000"
     d="m 1201.1129,407.17572 c -3.4767,-1.11963 -6.2199,-4.16221 -6.2199,-6.89874 0,-7.74558 15.9003,-10.81069 22.4667,-4.33095 7.1008,7.00706 -4.4874,15.01668 -16.2468,11.22969 z m 10.6056,-1.94581 c 1.9343,-3.08913 0.084,-9.20955 -3.2659,-10.80691 -4.9205,-2.3458 -7.9366,1.65168 -5.8871,7.80286 1.4174,4.25462 7.1845,6.14738 9.153,3.00405 z"
     id="tcC5" />
  <path
     inkscape:connector-curvature="0"
     style="fill:#000000"
     d="m 1238.6788,399.31455 c -3.4767,-1.11963 -6.2199,-4.1622 -6.2199,-6.89874 0,-7.74558 15.9003,-10.81069 22.4667,-4.33095 7.1009,7.00707 -4.4873,15.01668 -16.2468,11.22969 z m 10.6056,-1.94581 c 1.9344,-3.08912 0.084,-9.20955 -3.2658,-10.8069 -4.9206,-2.34581 -7.9367,1.65167 -5.8872,7.80285 1.4174,4.25462 7.1846,6.14739 9.153,3.00405 z"
     id="tcD5" />
  <path
     inkscape:connector-curvature="0"
     style="fill:#000000"
     d="m 1276.2447,391.45338 c -3.4766,-1.11963 -6.2198,-4.1622 -6.2198,-6.89874 0,-7.74557 15.9003,-10.81071 22.4666,-4.33095 7.1009,7.00707 -4.4873,15.01669 -16.2468,11.22969 z m 10.6056,-1.94581 c 1.9344,-3.08912 0.084,-9.20954 -3.2658,-10.8069 -4.9205,-2.34582 -7.9366,1.65168 -5.8872,7.80285 1.4175,4.25462 7.1846,6.14739 9.153,3.00405 z"
     id="tcE5" />
  <path
     inkscape:connector-curvature="0"
     style="fill:#000000"
     d="m 1313.8107,383.59222 c -3.4767,-1.11964 -6.2199,-4.16221 -6.2199,-6.89876 0,-7.74558 15.9003,-10.81069 22.4668,-4.33095 7.1007,7.00708 -4.4874,15.0167 -16.2469,11.22971 z m 10.6056,-1.94582 c 1.9345,-3.08912 0.086,-9.20956 -3.2657,-10.80692 -4.9207,-2.3458 -7.9368,1.65168 -5.8873,7.80287 1.4174,4.25462 7.1845,6.14739 9.153,3.00405 z"
     id="tcF5" />
  <path
     inkscape:connector-curvature="0"
     style="fill:none;fill-rule:evenodd;stroke:#000000;stroke-width:1.49816394;stroke-linecap:square;stroke-linejoin:miter;stroke-miterlimit:4;stroke-dasharray:none;stroke-opacity:1"
     d="m 1380.4498,360.21562 c 28.5935,0 28.5935,0 28.5935,0"
     id="path17919" />
  <path
     inkscape:connector-curvature="0"
     style="fill:#000000"
     d="m 1388.9425,367.86986 c -3.4766,-1.11963 -6.2198,-4.1622 -6.2198,-6.89874 0,-7.74557 15.9003,-10.81069 22.4668,-4.33095 7.1007,7.00707 -4.4875,15.01669 -16.247,11.22969 z m 10.6056,-1.94581 c 1.9345,-3.08912 0.086,-9.20954 -3.2656,-10.8069 -4.9207,-2.34581 -7.9368,1.65168 -5.8874,7.80285 1.4175,4.25462 7.1846,6.14739 9.153,3.00405 z"
     id="tcA5" />
  <path
     inkscape:connector-curvature="0"
     style="fill:none;fill-rule:evenodd;stroke:#000000;stroke-width:1.49816394;stroke-linecap:square;stroke-linejoin:miter;stroke-miterlimit:4;stroke-dasharray:none;stroke-opacity:1"
     d="m 1418.0157,360.21562 c 28.5935,0 28.5935,0 28.5935,0"
     id="path17923" />
  <path
     inkscape:connector-curvature="0"
     style="fill:#000000"
     d="m 1426.5085,360.0087 c -3.4767,-1.11964 -6.2199,-4.16221 -6.2199,-6.89874 0,-7.74558 15.9003,-10.8107 22.4668,-4.33096 7.1007,7.00707 -4.4875,15.01669 -16.2469,11.2297 z m 10.6056,-1.94582 c 1.9345,-3.08912 0.086,-9.20954 -3.2657,-10.8069 -4.9207,-2.3458 -7.9368,1.65168 -5.8873,7.80285 1.4174,4.25462 7.1845,6.14739 9.153,3.00405 z"
     id="tcH5" />
  <path
     inkscape:connector-curvature="0"
     style="fill:none;fill-rule:evenodd;stroke:#000000;stroke-width:1.49816394;stroke-linecap:square;stroke-linejoin:miter;stroke-miterlimit:4;stroke-dasharray:none;stroke-opacity:1"
     d="m 1455.5762,360.21562 c 28.5936,0 28.5936,0 28.5936,0"
     id="path17927" />
  <path
     inkscape:connector-curvature="0"
     style="fill:#000000"
     d="m 1464.0744,352.14753 c -3.4767,-1.11964 -6.2199,-4.16221 -6.2199,-6.89874 0,-7.74558 15.9003,-10.8107 22.4669,-4.33096 7.1007,7.00707 -4.4875,15.01669 -16.247,11.2297 z m 10.6056,-1.94581 c 1.9345,-3.08913 0.086,-9.20955 -3.2657,-10.80691 -4.9207,-2.3458 -7.9368,1.65168 -5.8873,7.80286 1.4174,4.25462 7.1845,6.14738 9.153,3.00405 z"
     id="tcC6" />
  <path
     inkscape:connector-curvature="0"
     style="fill:none;fill-rule:evenodd;stroke:#000000;stroke-width:1.49816394;stroke-linecap:square;stroke-linejoin:miter;stroke-miterlimit:4;stroke-dasharray:none;stroke-opacity:1"
     d="m 1493.1366,360.21562 c 28.5935,0 28.5935,0 28.5935,0"
     id="path17933" />
  <path
     inkscape:connector-curvature="0"
     style="fill:#000000"
     d="m 1501.6403,344.28636 c -3.4768,-1.11963 -6.2198,-4.1622 -6.2198,-6.89874 0,-7.74558 15.9003,-10.81069 22.4666,-4.33095 7.1009,7.00706 -4.4873,15.01668 -16.2468,11.22969 z m 10.6055,-1.94581 c 1.9345,-3.08913 0.086,-9.20955 -3.2657,-10.80691 -4.9205,-2.3458 -7.9366,1.65168 -5.8873,7.80286 1.4176,4.25462 7.1847,6.14738 9.153,3.00405 z"
     id="tcD6" />
  <path
     inkscape:connector-curvature="0"
     style="fill:none;fill-rule:evenodd;stroke:#000000;stroke-width:1.49816394;stroke-linecap:square;stroke-linejoin:miter;stroke-miterlimit:4;stroke-dasharray:none;stroke-opacity:1"
     d="m 1493.142,344.49328 c 28.5935,0 28.5935,0 28.5935,0"
     id="path17937" />
  <path
     inkscape:connector-curvature="0"
     style="fill:none;fill-rule:evenodd;stroke:#000000;stroke-width:1.49816394;stroke-linecap:square;stroke-linejoin:miter;stroke-miterlimit:4;stroke-dasharray:none;stroke-opacity:1"
     d="m 1530.7025,360.21562 c 28.5936,0 28.5936,0 28.5936,0"
     id="path17939" />
  <path
     inkscape:connector-curvature="0"
     style="fill:#000000"
     d="m 1539.2063,336.42519 c -3.4768,-1.11963 -6.2199,-4.1622 -6.2199,-6.89874 0,-7.74558 15.9003,-10.81069 22.4667,-4.33095 7.1008,7.00707 -4.4874,15.01668 -16.2468,11.22969 z m 10.6054,-1.94581 c 1.9345,-3.08912 0.086,-9.20955 -3.2657,-10.8069 -4.9205,-2.34581 -7.9366,1.65167 -5.8873,7.80285 1.4176,4.25462 7.1847,6.14739 9.153,3.00405 z"
     id="path17941" />
  <path
     inkscape:connector-curvature="0"
     style="fill:none;fill-rule:evenodd;stroke:#000000;stroke-width:1.49816394;stroke-linecap:square;stroke-linejoin:miter;stroke-miterlimit:4;stroke-dasharray:none;stroke-opacity:1"
     d="m 1530.7079,344.49328 c 28.5936,0 28.5936,0 28.5936,0"
     id="path17943" />
  <path
     inkscape:connector-curvature="0"
     style="fill:none;fill-rule:evenodd;stroke:#000000;stroke-width:1.49816394;stroke-linecap:square;stroke-linejoin:miter;stroke-miterlimit:4;stroke-dasharray:none;stroke-opacity:1"
     d="m 1530.7135,328.77095 c 28.5935,0 28.5935,0 28.5935,0"
     id="tcE6" />
  <path
     inkscape:connector-curvature="0"
     style="fill:none;fill-rule:evenodd;stroke:#000000;stroke-width:1.49816394;stroke-linecap:square;stroke-linejoin:miter;stroke-miterlimit:4;stroke-dasharray:none;stroke-opacity:1"
     d="m 1568.2629,360.21562 c 28.5935,0 28.5935,0 28.5935,0"
     id="path17947" />
  <path
     inkscape:connector-curvature="0"
     style="fill:#000000"
     d="m 1576.7722,328.56402 c -3.4768,-1.11963 -6.2199,-4.1622 -6.2199,-6.89874 0,-7.74557 15.9003,-10.81069 22.4667,-4.33095 7.1009,7.00707 -4.4873,15.01669 -16.2468,11.22969 z m 10.6055,-1.94581 c 1.9345,-3.08912 0.086,-9.20954 -3.2657,-10.8069 -4.9206,-2.34581 -7.9367,1.65168 -5.8874,7.80285 1.4176,4.25462 7.1848,6.14739 9.1531,3.00405 z"
     id="tcF6" />
  <path
     inkscape:connector-curvature="0"
     style="fill:none;fill-rule:evenodd;stroke:#000000;stroke-width:1.49816394;stroke-linecap:square;stroke-linejoin:miter;stroke-miterlimit:4;stroke-dasharray:none;stroke-opacity:1"
     d="m 1568.2683,344.49328 c 28.5936,0 28.5936,0 28.5936,0"
     id="path17951" />
  <path
     inkscape:connector-curvature="0"
     style="fill:none;fill-rule:evenodd;stroke:#000000;stroke-width:1.49816394;stroke-linecap:square;stroke-linejoin:miter;stroke-miterlimit:4;stroke-dasharray:none;stroke-opacity:1"
     d="m 1568.2739,328.77095 c 28.5935,0 28.5935,0 28.5935,0"
     id="path17953" />
  <path
     inkscape:connector-curvature="0"
     style="fill:none;fill-rule:evenodd;stroke:#000000;stroke-width:1.49816394;stroke-linecap:square;stroke-linejoin:miter;stroke-miterlimit:4;stroke-dasharray:none;stroke-opacity:1"
     d="m 1605.8288,360.21562 c 28.5936,0 28.5936,0 28.5936,0"
     id="path17955" />
  <path
     inkscape:connector-curvature="0"
     style="fill:#000000"
     d="m 1614.3381,320.70286 c -3.4768,-1.11964 -6.2198,-4.16221 -6.2198,-6.89874 0,-7.74558 15.9003,-10.8107 22.4666,-4.33096 7.1009,7.00707 -4.4873,15.01669 -16.2468,11.2297 z m 10.6055,-1.94582 c 1.9345,-3.08912 0.086,-9.20954 -3.2657,-10.8069 -4.9205,-2.3458 -7.9366,1.65168 -5.8873,7.80285 1.4176,4.25462 7.1847,6.14739 9.153,3.00405 z"
     id="tcG6" />
  <path
     inkscape:connector-curvature="0"
     style="fill:none;fill-rule:evenodd;stroke:#000000;stroke-width:1.49816394;stroke-linecap:square;stroke-linejoin:miter;stroke-miterlimit:4;stroke-dasharray:none;stroke-opacity:1"
     d="m 1605.8343,344.49328 c 28.5935,0 28.5935,0 28.5935,0"
     id="path17959" />
  <path
     inkscape:connector-curvature="0"
     style="fill:none;fill-rule:evenodd;stroke:#000000;stroke-width:1.49816394;stroke-linecap:square;stroke-linejoin:miter;stroke-miterlimit:4;stroke-dasharray:none;stroke-opacity:1"
     d="m 1605.8398,328.77095 c 28.5935,0 28.5935,0 28.5935,0"
     id="path17961" />
  <path
     inkscape:connector-curvature="0"
     style="fill:none;fill-rule:evenodd;stroke:#000000;stroke-width:1.49816394;stroke-linecap:square;stroke-linejoin:miter;stroke-miterlimit:4;stroke-dasharray:none;stroke-opacity:1"
     d="m 1605.8454,313.04861 c 28.5935,0 28.5935,0 28.5935,0"
     id="path17963" />
  <path
     inkscape:connector-curvature="0"
     style="fill:none;fill-rule:evenodd;stroke:#000000;stroke-width:1.49816394;stroke-linecap:square;stroke-linejoin:miter;stroke-miterlimit:4;stroke-dasharray:none;stroke-opacity:1"
     d="m 1643.3892,360.21562 c 28.5936,0 28.5936,0 28.5936,0"
     id="path17965" />
  <path
     inkscape:connector-curvature="0"
     style="fill:#000000"
     d="m 1651.9041,312.84169 c -3.4768,-1.11964 -6.2199,-4.16221 -6.2199,-6.89874 0,-7.74558 15.9003,-10.8107 22.4667,-4.33096 7.1008,7.00707 -4.4873,15.01669 -16.2468,11.2297 z m 10.6054,-1.94581 c 1.9345,-3.08913 0.086,-9.20955 -3.2657,-10.80691 -4.9205,-2.3458 -7.9366,1.65168 -5.8873,7.80286 1.4176,4.25462 7.1847,6.14738 9.153,3.00405 z"
     id="tcA6" />
  <path
     inkscape:connector-curvature="0"
     style="fill:none;fill-rule:evenodd;stroke:#000000;stroke-width:1.49816394;stroke-linecap:square;stroke-linejoin:miter;stroke-miterlimit:4;stroke-dasharray:none;stroke-opacity:1"
     d="m 1643.3946,344.49328 c 28.5936,0 28.5936,0 28.5936,0"
     id="path17969" />
  <path
     inkscape:connector-curvature="0"
     style="fill:none;fill-rule:evenodd;stroke:#000000;stroke-width:1.49816394;stroke-linecap:square;stroke-linejoin:miter;stroke-miterlimit:4;stroke-dasharray:none;stroke-opacity:1"
     d="m 1643.4002,328.77095 c 28.5935,0 28.5935,0 28.5935,0"
     id="path17971" />
  <path
     inkscape:connector-curvature="0"
     style="fill:none;fill-rule:evenodd;stroke:#000000;stroke-width:1.49816394;stroke-linecap:square;stroke-linejoin:miter;stroke-miterlimit:4;stroke-dasharray:none;stroke-opacity:1"
     d="m 1643.4057,313.04861 c 28.5936,0 28.5936,0 28.5936,0"
     id="path17973" />
  <path
     inkscape:connector-curvature="0"
     style="fill:none;fill-rule:evenodd;stroke:#000000;stroke-width:1.49816394;stroke-linecap:square;stroke-linejoin:miter;stroke-miterlimit:4;stroke-dasharray:none;stroke-opacity:1"
     d="m 1680.9552,360.21562 c 28.5935,0 28.5935,0 28.5935,0"
     id="path17975" />
  <path
     inkscape:connector-curvature="0"
     style="fill:#000000"
     d="m 1689.47,304.98052 c -3.4768,-1.11963 -6.2199,-4.1622 -6.2199,-6.89874 0,-7.74558 15.9003,-10.81069 22.4667,-4.33095 7.1009,7.00706 -4.4873,15.01668 -16.2468,11.22969 z m 10.6055,-1.94581 c 1.9345,-3.08913 0.086,-9.20955 -3.2657,-10.80691 -4.9206,-2.3458 -7.9366,1.65168 -5.8874,7.80286 1.4176,4.25462 7.1848,6.14738 9.1531,3.00405 z"
     id="tcH6" />
  <path
     inkscape:connector-curvature="0"
     style="fill:none;fill-rule:evenodd;stroke:#000000;stroke-width:1.49816394;stroke-linecap:square;stroke-linejoin:miter;stroke-miterlimit:4;stroke-dasharray:none;stroke-opacity:1"
     d="m 1680.9606,344.49328 c 28.5935,0 28.5935,0 28.5935,0"
     id="path17979" />
  <path
     inkscape:connector-curvature="0"
     style="fill:none;fill-rule:evenodd;stroke:#000000;stroke-width:1.49816394;stroke-linecap:square;stroke-linejoin:miter;stroke-miterlimit:4;stroke-dasharray:none;stroke-opacity:1"
     d="m 1680.9661,328.77095 c 28.5936,0 28.5936,0 28.5936,0"
     id="path17981" />
  <path
     inkscape:connector-curvature="0"
     style="fill:none;fill-rule:evenodd;stroke:#000000;stroke-width:1.49816394;stroke-linecap:square;stroke-linejoin:miter;stroke-miterlimit:4;stroke-dasharray:none;stroke-opacity:1"
     d="m 1680.9717,313.04861 c 28.5935,0 28.5935,0 28.5935,0"
     id="path17983" />
  <path
     inkscape:connector-curvature="0"
     style="fill:none;fill-rule:evenodd;stroke:#000000;stroke-width:1.49816394;stroke-linecap:square;stroke-linejoin:miter;stroke-miterlimit:4;stroke-dasharray:none;stroke-opacity:1"
     d="m 1680.9772,297.32627 c 28.5936,0 28.5936,0 28.5936,0"
     id="path17985" />
  <path
     inkscape:connector-curvature="0"
     style="fill:none;fill-rule:evenodd;stroke:#000000;stroke-width:1.49816394;stroke-linecap:square;stroke-linejoin:miter;stroke-miterlimit:4;stroke-dasharray:none;stroke-opacity:1"
     d="m 1718.5321,360.21562 c 28.5936,0 28.5936,0 28.5936,0"
     id="path17987" />
  <path
     inkscape:connector-curvature="0"
     style="fill:#000000"
     d="m 1727.0304,352.14753 c -3.4767,-1.11964 -6.2199,-4.16221 -6.2199,-6.89874 0,-7.74558 15.9003,-10.8107 22.4667,-4.33096 7.1009,7.00707 -4.4873,15.01669 -16.2468,11.2297 z m 10.6056,-1.94581 c 1.9343,-3.08913 0.084,-9.20955 -3.2658,-10.80691 -4.9206,-2.3458 -7.9367,1.65168 -5.8872,7.80286 1.4174,4.25462 7.1845,6.14738 9.153,3.00405 z"
     id="tcC7" />
  <path
     inkscape:connector-curvature="0"
     style="fill:none;fill-rule:evenodd;stroke:#000000;stroke-width:1.49816394;stroke-linecap:square;stroke-linejoin:miter;stroke-miterlimit:4;stroke-dasharray:none;stroke-opacity:1"
     d="m 1718.5376,344.49328 c 28.5936,0 28.5936,0 28.5936,0"
     id="path17991" />
  <path
     inkscape:connector-curvature="0"
     style="fill:none;fill-rule:evenodd;stroke:#000000;stroke-width:1.49816394;stroke-linecap:square;stroke-linejoin:miter;stroke-miterlimit:4;stroke-dasharray:none;stroke-opacity:1"
     d="m 1756.0926,360.21562 c 28.5935,0 28.5935,0 28.5935,0"
     id="path17993" />
  <path
     inkscape:connector-curvature="0"
     style="fill:#000000"
     d="m 1764.5963,344.28636 c -3.4768,-1.11963 -6.2199,-4.1622 -6.2199,-6.89874 0,-7.74558 15.9003,-10.81069 22.4667,-4.33095 7.1009,7.00706 -4.4873,15.01668 -16.2468,11.22969 z m 10.6055,-1.94581 c 1.9345,-3.08913 0.086,-9.20955 -3.2657,-10.80691 -4.9205,-2.3458 -7.9366,1.65168 -5.8873,7.80286 1.4175,4.25462 7.1847,6.14738 9.153,3.00405 z"
     id="tcD7" />
  <path
     inkscape:connector-curvature="0"
     style="fill:none;fill-rule:evenodd;stroke:#000000;stroke-width:1.49816394;stroke-linecap:square;stroke-linejoin:miter;stroke-miterlimit:4;stroke-dasharray:none;stroke-opacity:1"
     d="m 1756.098,344.49328 c 28.5935,0 28.5935,0 28.5935,0"
     id="path17997" />
  <path
     inkscape:connector-curvature="0"
     style="fill:none;fill-rule:evenodd;stroke:#000000;stroke-width:1.49816394;stroke-linecap:square;stroke-linejoin:miter;stroke-miterlimit:4;stroke-dasharray:none;stroke-opacity:1"
     d="m 1793.6585,360.21562 c 28.5936,0 28.5936,0 28.5936,0"
     id="path17999" />
  <path
     inkscape:connector-curvature="0"
     style="fill:#000000"
     d="m 1802.1622,336.42519 c -3.4768,-1.11963 -6.2198,-4.1622 -6.2198,-6.89874 0,-7.74558 15.9003,-10.81069 22.4667,-4.33095 7.1008,7.00707 -4.4874,15.01668 -16.2469,11.22969 z m 10.6055,-1.94581 c 1.9345,-3.08912 0.086,-9.20955 -3.2657,-10.8069 -4.9205,-2.34581 -7.9366,1.65167 -5.8873,7.80285 1.4176,4.25462 7.1847,6.14739 9.153,3.00405 z"
     id="tcE7" />
  <path
     inkscape:connector-curvature="0"
     style="fill:none;fill-rule:evenodd;stroke:#000000;stroke-width:1.49816394;stroke-linecap:square;stroke-linejoin:miter;stroke-miterlimit:4;stroke-dasharray:none;stroke-opacity:1"
     d="m 1793.6639,344.49328 c 28.5936,0 28.5936,0 28.5936,0"
     id="path18003" />
  <path
     inkscape:connector-curvature="0"
     style="fill:none;fill-rule:evenodd;stroke:#000000;stroke-width:1.49816394;stroke-linecap:square;stroke-linejoin:miter;stroke-miterlimit:4;stroke-dasharray:none;stroke-opacity:1"
     d="m 1793.6695,328.77095 c 28.5935,0 28.5935,0 28.5935,0"
     id="path18005" />
  <path
     inkscape:connector-curvature="0"
     style="fill:none;fill-rule:evenodd;stroke:#000000;stroke-width:1.49816394;stroke-linecap:square;stroke-linejoin:miter;stroke-miterlimit:4;stroke-dasharray:none;stroke-opacity:1"
     d="m 1831.2189,360.21562 c 28.5935,0 28.5935,0 28.5935,0"
     id="path18007" />
  <path
     inkscape:connector-curvature="0"
     style="fill:#000000"
     d="m 1839.7282,328.56402 c -3.4768,-1.11963 -6.2199,-4.1622 -6.2199,-6.89874 0,-7.74557 15.9003,-10.81069 22.4667,-4.33095 7.1009,7.00707 -4.4873,15.01669 -16.2468,11.22969 z m 10.6054,-1.94581 c 1.9345,-3.08912 0.086,-9.20954 -3.2656,-10.8069 -4.9206,-2.34581 -7.9367,1.65168 -5.8874,7.80285 1.4176,4.25462 7.1847,6.14739 9.153,3.00405 z"
     id="tcF7" />
  <path
     inkscape:connector-curvature="0"
     style="fill:none;fill-rule:evenodd;stroke:#000000;stroke-width:1.49816394;stroke-linecap:square;stroke-linejoin:miter;stroke-miterlimit:4;stroke-dasharray:none;stroke-opacity:1"
     d="m 1831.2243,344.49328 c 28.5935,0 28.5935,0 28.5935,0"
     id="path18011" />
  <path
     inkscape:connector-curvature="0"
     style="fill:none;fill-rule:evenodd;stroke:#000000;stroke-width:1.49816394;stroke-linecap:square;stroke-linejoin:miter;stroke-miterlimit:4;stroke-dasharray:none;stroke-opacity:1"
     d="m 1831.2299,328.77095 c 28.5935,0 28.5935,0 28.5935,0"
     id="path18013" />
  <path
     inkscape:connector-curvature="0"
     style="fill:none;fill-rule:evenodd;stroke:#000000;stroke-width:1.49816394;stroke-linecap:square;stroke-linejoin:miter;stroke-miterlimit:4;stroke-dasharray:none;stroke-opacity:1"
     d="m 1868.7848,360.21562 c 28.5936,0 28.5936,0 28.5936,0"
     id="path18015" />
  <path
     inkscape:connector-curvature="0"
     style="fill:#000000"
     d="m 1877.2941,320.70286 c -3.4768,-1.11964 -6.2199,-4.16221 -6.2199,-6.89874 0,-7.74558 15.9004,-10.8107 22.4667,-4.33096 7.1009,7.00707 -4.4873,15.01669 -16.2468,11.2297 z m 10.6055,-1.94582 c 1.9345,-3.08912 0.086,-9.20954 -3.2657,-10.8069 -4.9205,-2.3458 -7.9366,1.65168 -5.8873,7.80285 1.4176,4.25462 7.1847,6.14739 9.153,3.00405 z"
     id="tcG7" />
  <path
     inkscape:connector-curvature="0"
     style="fill:none;fill-rule:evenodd;stroke:#000000;stroke-width:1.49816394;stroke-linecap:square;stroke-linejoin:miter;stroke-miterlimit:4;stroke-dasharray:none;stroke-opacity:1"
     d="m 1868.7902,344.49328 c 28.5936,0 28.5936,0 28.5936,0"
     id="path18019" />
  <path
     inkscape:connector-curvature="0"
     style="fill:none;fill-rule:evenodd;stroke:#000000;stroke-width:1.49816394;stroke-linecap:square;stroke-linejoin:miter;stroke-miterlimit:4;stroke-dasharray:none;stroke-opacity:1"
     d="m 1868.7958,328.77095 c 28.5935,0 28.5935,0 28.5935,0"
     id="path18021" />
  <path
     inkscape:connector-curvature="0"
     style="fill:none;fill-rule:evenodd;stroke:#000000;stroke-width:1.49816394;stroke-linecap:square;stroke-linejoin:miter;stroke-miterlimit:4;stroke-dasharray:none;stroke-opacity:1"
     d="m 1868.8014,313.04861 c 28.5935,0 28.5935,0 28.5935,0"
     id="path18023" />
  <path
     inkscape:connector-curvature="0"
     style="fill:none;fill-rule:evenodd;stroke:#000000;stroke-width:1.49816394;stroke-linecap:square;stroke-linejoin:miter;stroke-miterlimit:4;stroke-dasharray:none;stroke-opacity:1"
     d="m 1906.3452,360.21562 c 28.5935,0 28.5935,0 28.5935,0"
     id="path18025" />
  <path
     inkscape:connector-curvature="0"
     style="fill:#000000"
     d="m 1914.86,312.84169 c -3.4768,-1.11964 -6.2198,-4.16221 -6.2198,-6.89874 0,-7.74558 15.9003,-10.8107 22.4667,-4.33096 7.1008,7.00707 -4.4874,15.01669 -16.2469,11.2297 z m 10.6055,-1.94581 c 1.9345,-3.08913 0.086,-9.20955 -3.2657,-10.80691 -4.9205,-2.3458 -7.9366,1.65168 -5.8873,7.80286 1.4176,4.25462 7.1847,6.14738 9.153,3.00405 z"
     id="tcA7" />
  <path
     inkscape:connector-curvature="0"
     style="fill:none;fill-rule:evenodd;stroke:#000000;stroke-width:1.49816394;stroke-linecap:square;stroke-linejoin:miter;stroke-miterlimit:4;stroke-dasharray:none;stroke-opacity:1"
     d="m 1906.3506,344.49328 c 28.5936,0 28.5936,0 28.5936,0"
     id="path18029" />
  <path
     inkscape:connector-curvature="0"
     style="fill:none;fill-rule:evenodd;stroke:#000000;stroke-width:1.49816394;stroke-linecap:square;stroke-linejoin:miter;stroke-miterlimit:4;stroke-dasharray:none;stroke-opacity:1"
     d="m 1906.3562,328.77095 c 28.5935,0 28.5935,0 28.5935,0"
     id="path18031" />
  <path
     inkscape:connector-curvature="0"
     style="fill:none;fill-rule:evenodd;stroke:#000000;stroke-width:1.49816394;stroke-linecap:square;stroke-linejoin:miter;stroke-miterlimit:4;stroke-dasharray:none;stroke-opacity:1"
     d="m 1906.3617,313.04861 c 28.5936,0 28.5936,0 28.5936,0"
     id="path18033" />
  <path
     inkscape:connector-curvature="0"
     style="fill:none;fill-rule:evenodd;stroke:#000000;stroke-width:1.49816394;stroke-linecap:square;stroke-linejoin:miter;stroke-miterlimit:4;stroke-dasharray:none;stroke-opacity:1"
     d="m 1943.9111,360.21562 c 28.5936,0 28.5936,0 28.5936,0"
     id="path18035" />
  <path
     inkscape:connector-curvature="0"
     style="fill:#000000"
     d="m 1952.426,304.98052 c -3.4768,-1.11963 -6.2199,-4.1622 -6.2199,-6.89874 0,-7.74558 15.9003,-10.81069 22.4667,-4.33095 7.1009,7.00706 -4.4873,15.01668 -16.2468,11.22969 z m 10.6054,-1.94581 c 1.9345,-3.08913 0.086,-9.20955 -3.2656,-10.80691 -4.9206,-2.3458 -7.9367,1.65168 -5.8874,7.80286 1.4176,4.25462 7.1847,6.14738 9.153,3.00405 z"
     id="tcH7" />
  <path
     inkscape:connector-curvature="0"
     style="fill:none;fill-rule:evenodd;stroke:#000000;stroke-width:1.49816394;stroke-linecap:square;stroke-linejoin:miter;stroke-miterlimit:4;stroke-dasharray:none;stroke-opacity:1"
     d="m 1943.9165,344.49328 c 28.5936,0 28.5936,0 28.5936,0"
     id="path18039" />
  <path
     inkscape:connector-curvature="0"
     style="fill:none;fill-rule:evenodd;stroke:#000000;stroke-width:1.49816394;stroke-linecap:square;stroke-linejoin:miter;stroke-miterlimit:4;stroke-dasharray:none;stroke-opacity:1"
     d="m 1943.9221,328.77095 c 28.5935,0 28.5935,0 28.5935,0"
     id="path18041" />
  <path
     inkscape:connector-curvature="0"
     style="fill:none;fill-rule:evenodd;stroke:#000000;stroke-width:1.49816394;stroke-linecap:square;stroke-linejoin:miter;stroke-miterlimit:4;stroke-dasharray:none;stroke-opacity:1"
     d="m 1943.9277,313.04861 c 28.5935,0 28.5935,0 28.5935,0"
     id="path18043" />
  <path
     inkscape:connector-curvature="0"
     style="fill:none;fill-rule:evenodd;stroke:#000000;stroke-width:1.49816394;stroke-linecap:square;stroke-linejoin:miter;stroke-miterlimit:4;stroke-dasharray:none;stroke-opacity:1"
     d="m 1943.9332,297.32627 c 28.5936,0 28.5936,0 28.5936,0"
     id="path18045" />
  <path
     inkscape:connector-curvature="0"
     style="fill:none;fill-rule:evenodd;stroke:#000000;stroke-width:1.49816394;stroke-linecap:square;stroke-linejoin:miter;stroke-miterlimit:4;stroke-dasharray:none;stroke-opacity:1"
     d="m 1981.4771,360.21562 c 28.5935,0 28.5935,0 28.5935,0"
     id="path18047" />
  <path
     inkscape:connector-curvature="0"
     style="fill:#000000"
     d="m 1989.9975,297.11935 c -3.4768,-1.11963 -6.2199,-4.1622 -6.2199,-6.89874 0,-7.74558 15.9003,-10.81069 22.4667,-4.33095 7.1009,7.00707 -4.4873,15.01668 -16.2468,11.22969 z m 10.6054,-1.94581 c 1.9345,-3.08912 0.086,-9.20955 -3.2656,-10.8069 -4.9206,-2.34581 -7.9367,1.65167 -5.8874,7.80285 1.4176,4.25462 7.1847,6.14739 9.153,3.00405 z"
     id="tcC8" />
  <path
     inkscape:connector-curvature="0"
     style="fill:none;fill-rule:evenodd;stroke:#000000;stroke-width:1.49816394;stroke-linecap:square;stroke-linejoin:miter;stroke-miterlimit:4;stroke-dasharray:none;stroke-opacity:1"
     d="m 1981.4825,344.49328 c 28.5935,0 28.5935,0 28.5935,0"
     id="path18051" />
  <path
     inkscape:connector-curvature="0"
     style="fill:none;fill-rule:evenodd;stroke:#000000;stroke-width:1.49816394;stroke-linecap:square;stroke-linejoin:miter;stroke-miterlimit:4;stroke-dasharray:none;stroke-opacity:1"
     d="m 1981.488,328.77095 c 28.5936,0 28.5936,0 28.5936,0"
     id="path18053" />
  <path
     inkscape:connector-curvature="0"
     style="fill:none;fill-rule:evenodd;stroke:#000000;stroke-width:1.49816394;stroke-linecap:square;stroke-linejoin:miter;stroke-miterlimit:4;stroke-dasharray:none;stroke-opacity:1"
     d="m 1981.4936,313.04861 c 28.5935,0 28.5935,0 28.5935,0"
     id="path18055" />
  <path
     inkscape:connector-curvature="0"
     style="fill:none;fill-rule:evenodd;stroke:#000000;stroke-width:1.49816394;stroke-linecap:square;stroke-linejoin:miter;stroke-miterlimit:4;stroke-dasharray:none;stroke-opacity:1"
     d="m 1981.4992,297.32627 c 28.5935,0 28.5935,0 28.5935,0"
     id="path18057" />
  <path
     inkscape:connector-curvature="0"
     style="fill:#000000"
     d="m 1718.8326,288.24344 c -1.9031,-1.71273 -1.0642,-4.63701 1.8212,-6.3482 l 1.3339,-0.79111 -0.935,-1.13728 c -1.2204,-1.48461 -0.9529,-3.11134 0.7912,-4.81232 1.7104,-1.66806 3.6859,-2.05339 5.4527,-1.06357 2.2175,1.24219 2.0495,3.83556 -0.3562,5.50129 l -1.4855,1.0286 1.1173,1.09211 c 1.3718,1.34075 1.4577,2.87536 0.2658,4.7422 -1.7188,2.69212 -5.9507,3.63747 -8.0054,1.78828 z m 5.2784,-0.47353 c 1.3403,-0.66543 2.2229,-2.22161 1.8874,-3.32757 -0.2384,-0.78555 -2.5173,-2.73721 -3.1963,-2.73721 -0.863,0 -2.7103,1.71285 -3.2176,2.9833 -1.1946,2.99133 1.2948,4.68602 4.5265,3.08148 z m 2.239,-8.95673 c 1.6488,-1.62718 1.7784,-3.0691 0.3627,-4.03964 -0.879,-0.60266 -1.1315,-0.61339 -2.5202,-0.10722 -0.9776,0.35641 -1.7537,0.9693 -2.1178,1.67249 -0.5635,1.08837 -0.5461,1.13605 0.8945,2.45311 0.8081,0.73875 1.5979,1.34318 1.7552,1.34318 0.1572,0 0.8887,-0.59489 1.6256,-1.32197 z"
     id="path18059" />
  <path
     inkscape:connector-curvature="0"
     style="fill:none;fill-rule:evenodd;stroke:#000000;stroke-width:1.17399073;stroke-linecap:butt;stroke-linejoin:miter;stroke-miterlimit:4;stroke-dasharray:2.34798138, 1.17399069;stroke-dashoffset:0;stroke-opacity:1"
     d="m 1733.6814,282.06406 c 288.9843,0 288.9843,0 288.9843,0 0,14.04753 0,14.04753 0,14.04753"
     id="path18063" />
  <path
     inkscape:connector-curvature="0"
     style="fill:#000000"
     d="m 1351.3766,375.73103 c -3.4767,-1.11963 -6.2199,-4.1622 -6.2199,-6.89874 0,-7.74558 15.9003,-10.81069 22.4669,-4.33095 7.1007,7.00707 -4.4875,15.0167 -16.247,11.22969 z m 10.6056,-1.94581 c 1.9345,-3.08912 0.086,-9.20955 -3.2657,-10.8069 -4.9207,-2.34581 -7.9367,1.65167 -5.8873,7.80285 1.4174,4.25462 7.1846,6.1474 9.153,3.00405 z"
     id="tcG5" />
  <path
     inkscape:connector-curvature="0"
     style="fill:none;fill-rule:evenodd;stroke:#000000;stroke-width:1.49816394;stroke-linecap:square;stroke-linejoin:miter;stroke-miterlimit:4;stroke-dasharray:none;stroke-opacity:1"
     d="m 65.638446,674.66234 c 28.593537,0 28.593537,0 28.593537,0"
     id="path5929" />
  <path
     inkscape:connector-curvature="0"
     style="fill:none;fill-rule:evenodd;stroke:#000000;stroke-width:1.49816394;stroke-linecap:square;stroke-linejoin:miter;stroke-miterlimit:4;stroke-dasharray:none;stroke-opacity:1"
     d="m 65.638446,658.94 c 28.593537,0 28.593537,0 28.593537,0"
     id="path5931" />
  <path
     inkscape:connector-curvature="0"
     style="fill:none;fill-rule:evenodd;stroke:#000000;stroke-width:1.49816394;stroke-linecap:square;stroke-linejoin:miter;stroke-miterlimit:4;stroke-dasharray:none;stroke-opacity:1"
     d="m 65.638446,643.21767 c 28.593537,0 28.593537,0 28.593537,0"
     id="path5933" />
  <path
     inkscape:connector-curvature="0"
     style="fill:#000000"
     d="m 74.131202,682.3166 c -3.476652,-1.11959 -6.219867,-4.16217 -6.219867,-6.89865 0,-7.74561 15.900308,-10.81067 22.466683,-4.33103 7.100864,7.00713 -4.487326,15.01672 -16.246816,11.22968 z m 10.605615,-1.9458 c 1.934345,-3.08912 0.08565,-9.20951 -3.265832,-10.8069 -4.920536,-2.34577 -7.93663,1.65179 -5.887183,7.80284 1.417438,4.25462 7.18456,6.14743 9.153015,3.00406 z"
     id="bcA0" />
  <path
     inkscape:connector-curvature="0"
     style="fill:none;fill-rule:evenodd;stroke:#000000;stroke-width:1.49816394;stroke-linecap:square;stroke-linejoin:miter;stroke-miterlimit:4;stroke-dasharray:none;stroke-opacity:1"
     d="m 103.19882,658.90022 c 28.59369,0 28.59369,0 28.59369,0"
     id="path5937" />
  <path
     inkscape:connector-curvature="0"
     style="fill:none;fill-rule:evenodd;stroke:#000000;stroke-width:1.49816394;stroke-linecap:square;stroke-linejoin:miter;stroke-miterlimit:4;stroke-dasharray:none;stroke-opacity:1"
     d="m 103.19882,643.17789 c 28.59369,0 28.59369,0 28.59369,0"
     id="path5939" />
  <path
     inkscape:connector-curvature="0"
     style="fill:#000000"
     d="m 111.69714,674.45543 c -3.47665,-1.11959 -6.21987,-4.16217 -6.21987,-6.89864 0,-7.74561 15.90031,-10.81068 22.46668,-4.33104 7.10087,7.00713 -4.48732,15.01672 -16.24681,11.22968 z m 10.60561,-1.94579 c 1.93435,-3.08913 0.0857,-9.20952 -3.26583,-10.80691 -4.92054,-2.34577 -7.93663,1.65179 -5.88718,7.80284 1.41743,4.25462 7.18456,6.14743 9.15301,3.00407 z"
     id="bcH0" />
  <path
     inkscape:connector-curvature="0"
     style="fill:#000000"
     d="m 50.10179,745.21947 c -1.90309,-1.71264 -1.06417,-4.63699 1.82119,-6.34821 l 1.33389,-0.79099 -0.93494,-1.13736 c -1.22044,-1.48466 -0.95297,-3.11129 0.79114,-4.81229 1.71045,-1.66814 3.68597,-2.05334 5.45277,-1.06362 2.21744,1.24223 2.04945,3.83563 -0.35627,5.50141 l -1.48551,1.02855 1.11736,1.09208 c 1.37176,1.3408 1.45771,2.8753 0.26582,4.74217 -1.71887,2.69213 -5.95075,3.63752 -8.00545,1.78826 z m 5.27846,-0.4734 c 1.3402,-0.66553 2.22285,-2.22173 1.88731,-3.32764 -0.23832,-0.78548 -2.51722,-2.73726 -3.19626,-2.73726 -0.86296,0 -2.7103,1.71295 -3.21759,2.98332 -1.1946,2.99133 1.29482,4.68604 4.52654,3.08158 z m 2.23893,-8.95686 c 1.64884,-1.62711 1.77837,-3.069 0.36274,-4.03954 -0.87905,-0.60264 -1.13149,-0.61349 -2.52023,-0.10723 -0.97761,0.35643 -1.75373,0.96928 -2.11781,1.67254 -0.56349,1.0883 -0.54606,1.13594 0.89452,2.453 0.80811,0.7388 1.5979,1.34332 1.75523,1.34332 0.15717,0 0.88866,-0.59493 1.62555,-1.32209 z"
     id="path5943" />
  <path
     inkscape:connector-curvature="0"
     style="fill:none;fill-rule:evenodd;stroke:#000000;stroke-width:0.82723612;stroke-linecap:butt;stroke-linejoin:miter;stroke-miterlimit:4;stroke-dasharray:1.6544722, 0.8272361;stroke-dashoffset:0;stroke-opacity:1"
     d="m 64.764433,737.93392 c 67.647967,0 67.647967,0 67.647967,0 0,-14.68928 0,-14.68928 0,-14.68928"
     id="path5945" />
</svg>
